<svg height="305" viewBox="0 0 221 305" width="221" xmlns="http://www.w3.org/2000/svg"><g fill="none" fill-rule="evenodd"><g fill-rule="nonzero" transform="matrix(-1 0 0 1 221 46)"><path d="m71.0423973 27.7199989c-.6015762.7052695-.9866104 1.5693047-1.1088 2.4882-.1682585 6.9797644-1.6808729 13.8615997-4.4549998 20.2685992-.4026.9371999-.8316 1.8677999-1.2869999 2.7785999-.2706.561-.5544 1.1087999-.8514 1.6565999-1.3882439 2.5853286-2.9817606 5.0550587-4.7651998 7.3853997-1.485 1.98-2.9897999 3.9599999-4.5803998 5.8805998-.6116.748-1.2584 1.4718-1.9404 2.1713999-7.6625997 7.9199997-19.0409993 12.6587996-27.9245989 3.1151999-2.6861999-2.8907999-4.6199998-6.3887997-6.4151998-9.8999996-2.7587999-5.3987998-5.2645998-10.9185996-7.5173997-16.5593994-1.02299995-2.5673999-1.79519992-5.3657998-3.14159987-7.7615997-1.31999995-2.2835999-2.6399999-4.6199998-3.88079985-6.9233997-1.71599994-3.1415999-3.06239988-6.3029998-3.04281548-6.7847998.04641559-1.1417999-.0459844-.7721999.04641559-1.1417999.03266093-.1123759.07233884-.2225923.1188-.33.02589787-.05091.07818143-.0829731.13529999-.0829731s.10940213.0320631.1353.0829731c.15839999.2838.31019999.5676.46199998.8514.91739997 1.6895999 1.78199993 3.2999998 2.6399999 4.6199998.03307073.0553815.08837436.0938536.1518.1056.06177642.0227248.12962357.0227248.19139999 0 .11139906-.0800334.14294871-.2320454.0726-.3498-.86459997-1.32-1.72259994-2.8709999-2.6399999-4.5473998l-.52139998-.9636c-.11481769-.2158326-.08038523-.4806977.08579999-.66.1270843-.1342027.31099936-.1990271.49414681-.1741713.18314745.0248557.34313325.1363523.42985316.2995713l.46199998.8316c.81373017 1.6288506 1.78175931 3.1759291 2.89079989 4.6199998.0343108.0399405.08061214.0677213.13199999.0792.07783159.0138052.15775386-.0079918.2178-.0594.04717276-.045965.07377808-.1090361.07377808-.1749 0-.0658638-.02660532-.128935-.07377808-.1749-1.07926324-1.4258265-2.02485995-2.9480604-2.8247999-4.5473998-.21119999-.3894-.41579998-.7656-.62039997-1.1286-.14599307-.2660154-.06260116-.599583.19139999-.7655999.13398839-.0877971.29856142-.115631.45396971-.0767789.15540829.038852.28752149.1408575.36443026.2813789 1.10879996 1.9799999 2.28359991 3.9995998 3.49799987 5.9399997.03376195.058846.09168557.0998752.15839999.1122.05958827.0222641.12521173.0222641.18479999 0 .11580383-.0734975.15108654-.2263893.0792-.3432-1.24079995-1.9799999-2.43539991-4.0193998-3.57059986-6.0719997-.03981021-.0751517-.03993035-.1651165-.00032102-.2403742.03960934-.0752578.1138349-.1260933.19832101-.1358258.17511486-.021449.35278493-.0057061.52139998.0462.93719996.297 1.80839993 2.0525999 2.31659991 2.8115999.97679996 1.4519999 2.5541999 3.4517998 4.29659985 5.6429998-.1452-.2772.9702-4.3559999 1.5113999-4.1777999.1936176.0789774.3263266.2601762.3432.4686.0133664.2021044-.0067031.4050294-.0594.6006-.3592539 1.7449671-.3299607 3.5476267.0858 5.2799998.6083484 2.2073521 1.661734 4.2669566 3.0953999 6.0521998 2.8687999 3.6035998 5.8695998 7.0993997 9.0023997 10.4873996 2.9303998 3.1679998 6.3095997 7.7813997 10.0121996 10.0385996 3.7025998 2.2571999 5.2799998-6.4085998 6.0719997-8.8901997.4488-1.4651999.8778-2.9369999 1.32-4.4153998l.6138-2.0261999c.7395058-2.468804 1.6209733-4.8928397 2.6399999-7.2599998.0726-.1716.1518-.3432.231-.5147999 1.2209009-2.6266744 2.8467038-5.0453346 4.8179998-7.1675998 3.0557999-3.2999999 6.9233997-5.7155998 11.2529996-6.4283997 2.3297999-.3828 9.3125996-.5016 11.0087995 1.1417999 1.3134 1.0626-.5015999 2.8049999-1.7885999 4.6397998z" fill="#e4b99e"/><path d="m10.8767996 29.3897989.3102.3432c-1.54520801 1.4454204-2.28482784 3.5558023-1.97999995 5.6495998l-.44879998.0726c-.32910964-2.2466939.46222282-4.512222 2.11859993-6.0653998z" fill="#313233"/><path d="m26.696999 3.33959987c-.6158314.87673434-.9954283 1.89732709-1.1022 2.96339989-.1312498 6.67785474-1.14545 13.30899254-3.0161999 19.72079924-.4025999.9372-.8315999 1.8677999-1.2869999 2.7785999-.2706.561-.5544 1.1088-.8514 1.6565999-1.3882439 2.5853286-2.9817605 5.0550587-4.7651998 7.3853998-1.4849999 1.9799999-2.9897999 3.9599998-4.5803998 5.8805997-.6116.748-1.25839997 1.4718-1.94039995 2.1714-.58739997-8.3753997 4.65959985-11.1803996-9.10799965-27.165599.73950584-2.468804 1.62097334-4.8928396 2.6399999-7.2599997.0726-.1716.15179999-.3432.23099999-.5148 1.22090091-2.62667437 2.84670383-5.0453346 4.81799982-7.16759974 5.93999979-2.7851999 12.90959949-4.15139985 16.38119939-2.40899991.9638779.50431327 1.8362111 1.16692956 2.5805999 1.96019992z" fill="#15203d" opacity=".5" transform="translate(42.899998 24.419999)"/><path d="m73.0553972 22.7567991c-1.7489999-1.6895999-8.7449996-1.6103999-11.2199995-1.2011999-6.5999998 1.0823999-12.8171996 6.3425997-16.2491994 13.7213995-.0792.1782-.1584.3497999-.231.5213999-1.2753751 3.0342188-2.3620456 6.1443448-3.2537999 9.3125997l-.0528.1782.165.099c7.2137997 4.2701998 15.9719994 6.6527997 21.9251992 8.0717997l.1848.0396.0858-.1716c3.5897586-7.2016712 5.5586874-15.1021668 5.7683997-23.1461991.1281217-.8677129.4935758-1.6831324 1.056-2.3562.2244-.3101999.4686-.6599999.7062-.9305999 1.1285999-1.4652 2.3033999-2.9831999 1.1153999-4.1381999z" fill="#f2f2f2"/><path d="m107.678996 246.166791h13.246199l-3.306599-19.8594-17.0148 1.8216 5.7156 17.2128z" fill="#fd4a7a"/><path d="m50.5625981 230.861391-2.0591999 14.6388-16.6385994 7.299599 3.8807998-34.557598z" fill="#fd4a7a"/><path d="m87.1199967 77.5565971c-.0748-.1892-.154-.3806-.2376-.5742-.603202-1.4403841-1.4295288-2.7767616-2.4485999-3.9599999l-.2838-.3168c-.4289631-.4688439-.8875007-.9097455-1.3727999-1.3199999-2.5937999-2.1317999-5.8145998-3.3593999-8.9363997-4.5143998-9.0683997-3.3461999-14.8895994 1.7489999-19.0145993 9.6491996-3.7836946 7.283237-6.6374377 15.0129559-8.4941997 23.0075991l-9.2399996 31.4357988c-2.2752043 7.71338-3.9521762 15.590734-5.0159998 23.561999l-3.2999999 77.002197c3.6048008.999727 7.3024753 1.627801 11.0351996 1.8744 3.5800003.106604 7.1609161-.178895 10.6787996-.8514 3.4649999-17.364599 8.5337997-45.427798 13.9985995-67.220997 1.2341999-4.9302 2.4551999-9.9 3.5969998-14.8236 1.1826809-4.987733 2.7403092-9.879038 4.6595998-14.632199l.3168-.7854c5.0291998-12.6654 11.5037996-24.650999 14.3945995-38.4449987 0-.1254.0462-.2574.0726-.3828.0924-.5015999.1848-1.0097999.2706-1.5245999.2046-1.2341999.3894-2.4947999.5213999-3.7619999.5016-4.6133998.396-9.3785996-1.2011999-13.4177994z" fill="#bc9fe3"/><path d="m.47519998 74.9627972c1.23419996-4.9301999 2.45519991-9.8999997 3.59699987-14.8235995 1.18268092-4.987733 2.74030915-9.8790386 4.65959982-14.6321994.099-.264.21119999-.5214.31679999-.7854 5.02919984-12.6653995 11.50379954-24.6509991 14.39459944-38.44499854 0-.12539999.0462-.25739999.0726-.38279998.0924-.50159998.1848-1.00979997.2706-1.52459995.2046-1.23419995.3894-2.4947999.5214-3.76199985l-16.71119939 1.47179994z" fill="#313233" opacity=".5" transform="translate(64.019998 90.419997)"/><path d="m10.1904 256.62119h122.713795v1h-122.713795z" fill="#bc9fe3"/><path d="m118.727395 230.432391c-.521399.1386-1.036199.264-1.564199.3894-4.618696.90655-9.297261 1.475655-13.9986 1.7028-2.874299.170678-5.4932798-1.644349-6.3425997-4.3956l-16.8761993-55.439998c-.858-4.659599-1.617-9.345599-2.4221999-13.978799-1.1352-6.4746-2.1912-12.8634-3.1415999-19.212599-1.8612-12.474-3.2999999-25.027199-3.9599999-37.619999-.2574-5.0621997-1.1681999-11.2991994-.1254-16.6517992.1651959-.897295.4013371-1.7800659.7062-2.6399999 1.101318-3.3408069 3.5772476-6.0520819 6.8045997-7.4513997 2.5377327-1.0648732 5.2748565-1.5713311 8.0255997-1.485.66 0 1.2672 0 1.9008.0462 1.3859999.0594 2.7719999.1848 4.1381998.3102 3.2999999.3036 6.8375998.759 9.5963995 2.3363999 1.079016.6020087 2.024364 1.417119 2.7786 2.3957999.1782.2244.3432.4554.5082.66 1.370248 2.09246 2.399469 4.3892698 3.0492 6.8045997.34969 1.2297091.636066 2.4765475.858 3.7355999.553942 3.2133677.836539 6.4676457.8448 9.7283996 0 3.5903998-.264 7.1675998-.5412 10.7381998-.099 1.2144-.1914 2.4288-.264 3.6498-.1254 1.9008-.2112 3.8082-.2112 5.715599 0 9.2994-1.0362 19.2456 0 28.498799 1.5708 14.0052 3.1966 28.001599 4.8774 41.989199 1.474 12.069199 3.0272 24.131799 4.6596 36.187798.2112 1.4586.5016 2.772.699599 3.9864z" fill="#bc9fe3"/><path d="m50.3975981 14.9555994c-2.6399999-.165-5.4845998-.5213999-7.7549997-.6071999-4.9037998-.1848-9.7877996-.6138-14.6519995-1.023-4.8358983-.369803-9.6436479-1.0443429-14.3945994-2.0195999l-.3498-.0726c-2.361608-.506009-4.67397151-1.2193743-6.91019974-2.13179995-3.95999985-1.70279993-6.65939975-4.05899984-6.16439977-7.35239972 1.55924929-.39480547 3.15734203-.61614796 4.76519982-.65999997 6.59999979-.44879998 13.39139949-.75899997 19.92539929.11219999 1.3248923.18402762 2.6365936.45298149 3.9269998.80519997.5148.1386 1.0296.28379999 1.5377999.43559999 1.254.36299998 2.508.74579997 3.8543999 1.08239996 3.1151999.78539997 6.4877998 1.00979996 9.8273996 1.55759994h.0528c1.0790154.60200865 2.0243637 1.417119 2.7785999 2.39579991.1782.22439999.3432.45539998.5082.65999997 1.3715168 2.09652111 2.4007791 4.39788041 3.0491999 6.81779971z" fill="#313233" opacity=".5" transform="translate(57.419998 71.279997)"/><path d="m111.619196 47.9753982c1.32-6.6989998 2.2044-14.8367995-.495-19.5887993-2.772-4.8839998-11.7743998-6.3095997-16.7507996-6.7121997-6.5141997-.5346-12.6059995 1.6697999-19.0739993.5346-4.3559998-.7722-8.9561996-2.3232-13.0547995-.66-4.2173998 1.7357999-7.1213997 6.9101997-7.6493997 11.2859996-.1824527 1.7011964-.2771781 3.4106601-.2838 5.1215998-.0858 5.7617997.5346 11.5103995.4752 17.2589993-.0462 4.4483998-1.2539999 9.2399997-.5478 13.6091995.7656 4.7915998 5.3459998 7.9595997 9.7745997 9.8999996 8.9826675 3.8752511 18.8715678 5.1556636 28.5449989 3.6959999 3.8081998-.561 8.1377995-.3366 10.8437995-3.6035999 2.2902-2.7719999 2.3958-6.6923997 2.4684-10.2893996.0924-4.7849998 3.0426-9.2399996 4.224-13.9259995.4686-1.8017999 1.0296-4.1315998 1.5246-6.6263997z" fill="#f2f2f2"/><path d="m106.768196 61.7561977 1.98-3.3527999c-.903586.9545945-1.58036 2.1005993-1.98 3.3527999z" fill="#f2f2f2"/><g fill="#e4b99e"><path d="m128.350195 42.7085984c-.904929-1.3157006-1.890202-2.5742933-2.9502-3.7685999-4.7388-5.3723998-22.327799-22.1363991-28.9409987-11.9195995-3.8147998 5.8871998-2.9303998 9.8207996.4686 15.4967994 2.3612991 3.939372 4.9552987 7.7345011 7.7681997 11.3651996 1.4124 1.8259999 2.882 3.6145998 4.4088 5.3657998 1.5312 1.7489999 3.1812 3.5969998 3.5244 5.8409997.297 1.9206-.4224 3.8477999-1.122 5.6759998-3.5772 9.2927997-6.6726 18.8891993-10.3488 28.076399-.27765.9410077-.820743 1.7819997-1.5641998 2.4221997-.5236922.324307-1.0871782.579428-1.6763999.759-.8904658.33692-1.7369923.780127-2.5211999 1.32l.1518.165c1.6212688 1.563386 3.3894433 2.966874 5.2799996 4.191 1.61805.907375 3.309142 1.677859 5.0556 2.3034 0-.5148 0-1.0362 0-1.5444.3102-3.1944 4.0128-6.0456 5.94-8.5403998 2.772-3.5705999 5.577-7.1213997 8.362199-10.6853996 3.244597-3.988026 6.212719-8.1932327 8.8836-12.5861995 2.7984-4.8245998 4.7916-9.8999996 5.0556-15.3911994.3828-6.5207998-1.947-13.0019995-5.775-18.5459993z"/><path d="m73.1081972 25.871999c.2112 2.3957999 2.1779999 4.4021999 4.4747999 5.1149998 2.3445876.6247053 4.8352674.3906189 7.0223997-.66 3.5243999-1.5641999 6.5273997-4.9169998 6.5471997-8.7779996-4.0378001-.5519006-8.1252775-.6426842-12.1835995-.2706-3.5573999.297-6.2501998.297-5.8607998 4.5935998z"/><path d="m78.190197 8.4876h8.6526v18.268799h-8.6526z"/></g><path d="m77.7347971 16.2623994c.0527999 1.5641999.1319999 3.4847999.1979999 5.0885998 2.7521999-.9438 4.7189999-2.3033999 5.6627998-5.6759998.3627222-1.3558667.3786095-2.7811848.0462-4.1447998l-1.6631999 1.3199999c-1.6037999 1.0032-1.7159999-2.4947999-2.3495999.7326 0 .165-.363.0858-.7458 0-.5148-.165-1.1219999-.4026-1.1549999-.2046-.0452601.9609229-.0430574 1.9234942.0066 2.8841999z" fill="#0f0c26"/><path d="m88.5851966 5.77499978c.594 1.07579996.4092 2.52779991.0396 3.86099985-.0544441.23863651-.1578243.46337597-.3036.65999997-.2087447.2293407-.4755298.3980765-.7721999.4884-1.0956176.3816169-2.3039934.2583626-3.2999999-.3366-.8976-.55439998-1.6235999-1.75559993-2.7719999-1.87439993-.8382-.07919999-1.9403999.65999998-2.8115999.78539998-4.9895998.65999995-6.2699997-5.2799998-3.1811999-8.42819968.2160961-.27226562.5374866-.44015619.8844-.46199999.2694797.05000998.5190691.1759496.7194.36299999 3.1283999 2.33639991 7.0157997 2.06579992 10.3421996 3.84119985.4861425.24422288.8883131.62800855 1.1549999 1.10219996z" fill="#663e45"/><path d="m87.5357967 6.02579977c-.0214934-.05185054-.0457276-.10252202-.0726-.15179999-.3036.30799999-.6138.60499997-.9306.89099996-1.6565999 1.50479995-3.5507998 2.11199992-5.6363998 2.58719991-.47772.08867309-.9676799.08867309-1.4453999 0 .230018 1.87844445.3292569 3.77059965.297 5.66279975 0 .363 0 .7062-.0462 1.0494.1729871.1357414.3536896.2613516.5412.3762 4.9301998 3.0029999 8.5799996-4.2173999 7.7945997-8.73839969-.097716-.57727989-.2661851-1.14032132-.5016-1.67639994z" fill="#663e45"/><path d="m84.0113968 13.1273995c-.429-.1518-.5742-.66-.66-1.0626-.2772-1.6763999.3234-2.92379985-1.2077999-3.74219982-.8316-.44879998-3.6101999-.14519999-3.0887999-1.84799993-.4569414.00316324-.907592.10681288-1.3199999.30359999-2.7785999 1.31999995-1.8876 6.63959976-1.386 8.92319966.1879742 1.0250814.7680094 1.9365652 1.6169999 2.5409999 1.114617.6504955 2.4683648.7456237 3.6629999.2574 1.1583154-.4847929 2.1737534-1.2571618 2.9501999-2.2439999 1.0692-1.2672.9834-2.5211999.5676-3.8081999-.1516882.4813484-.6392574.773323-1.1352.6798z" fill="#e4b99e"/><path d="m84.5789968 13.0415995.3564-2.0459999c.6571526-.0795098 1.2813671.3080387 1.5015929.9322758s-.0226242 1.3176789-.584193 1.6681241c-.2471019.169608-.5577366.2181447-.8447999.132-.2875936-.1022933-.4563191-.400375-.396-.6996z" fill="#e4b99e"/><path d="m80.269197 11.7875996c-.0897473.007264-.1785656-.0224595-.2458629-.0822793-.0672973-.0598199-.107229-.1445407-.1105371-.2345207.0101662-.195005.1678412-.3498133.363-.3564.0906402-.0114225.181799.0168404.2500802.0775347.0682811.0606944.1070366.147911.1063197.2392653-.0101662.195005-.1678412.3498132-.3629999.3564z" fill="#150077"/><path d="m79.081197 14.1239995-1.4585999-.2904.6335999-3.2075999.3564.066-.5676 2.8643999 1.1088.2178z" fill="#15203d"/><path d="m76.4411971 11.5301996c-.0906402.0114224-.181799-.0168404-.2500802-.0775348s-.1070367-.1479109-.1063296-.2392652c.0101761-.195005.1678511-.3498133.3630098-.3564.0897473-.0072641.1785655.0224594.2458629.0822793.0672973.0598198.1072289.1445407.1105371.2345207-.0101663.195005-.1678413.3498132-.363.3564z" fill="#150077"/><path d="m84.0839968 8.0255997s-6.1841998 3.2999999-8.8043997-2.38259991l5.4713998.23759999z" fill="#663e45"/><path d="m80.6057969 15.2129994-3.1349998.0528.4355999.7194c.2131553.482693.7018481.7839948 1.2288522.7576446.5270042-.0263502.9832045-.3748967 1.1471478-.8764446z" fill="#fff"/><path d="m128.554795 42.5831984c-.90308-1.3111117-1.886145-2.5652914-2.9436-3.7553999-3.894-4.4219998-15.767399-15.7739994-23.839199-15.2261994-2.2633156.1248162-4.3187187 1.3600345-5.4911997 3.2999999-3.9599998 6.0719997-2.9303998 10.0583996.462 15.7211994 2.3663502 3.9492101 4.9670017 7.7532144 7.7879997 11.3915996l.0924.1253999.1584-.0396c9.24-2.2571999 17.456999-6.1511997 23.726999-11.2199995l.1584-.132z" fill="#f2f2f2"/><path d="m121.505995 251.88239h-32.9075984-.1122v4.6068h33.0197984z" fill="#c8ced0"/><path d="m120.832795 243.883191v-3.9996c-.977883-.000002-1.91562.388912-2.606469 1.080999s-1.078083 1.630518-1.07633 2.608401v.3102h-7.491l-.2244-.1518v-1.551c.000001-1.830342-.727551-3.585622-2.022417-4.87925-1.294867-1.293629-3.050842-2.019501-4.881183-2.017753h-.4026v7.596603l-10.7183995 4.7916c-1.9271999.66-3.2999998 2.2902-2.8115999 4.237199h32.9075984v-2.171399z" fill="#f2f2f2"/><path d="m51.0575981 251.88239h-32.9075988-.1056v4.6068h33.0131988z" fill="#c8ced0"/><path d="m50.3909981 243.883191v-3.9996c-2.0375993 0-3.6893999 1.6518-3.6893999 3.6894v.3102h-7.4843997l-.231-.1518v-1.551c.0000009-1.830342-.7275512-3.585622-2.0224173-4.87925-1.2948662-1.293629-3.0508411-2.019501-4.8811824-2.017753h-.4026v7.596603l-10.7117996 4.7916c-1.9337999.66-3.2999999 2.2902-2.8181999 4.237199h32.9075988v-2.171399z" fill="#f2f2f2"/><path d="m17.8991993 17.3777993c-.099 1.2144-.1914 2.4287999-.264 3.6497999-7.1147997-2.5937999-16.11719936-8.2565997-17.5427993-20.49959922l1.47839994 3.40559987c1.81774964 4.20050724 4.63667922 7.89185475 8.21039969 10.75139955z" fill="#313233" opacity=".5" transform="translate(91.079997 93.059996)"/></g><path d="m11.5 23 11.5-11.5-11.5-11.5-11.5 11.5z" fill="#696969" opacity=".297294" transform="translate(148)"/><path d="m18.8999997 37.7999994 18.8999997-18.8999997-18.8999997-18.8999997-18.8999997 18.8999997z" fill="#009fde" opacity=".5" transform="translate(57 21)"/><g fill-rule="nonzero" transform="matrix(-1 0 0 1 103 85)"><path d="m53.7 217.101307v-9l.31-.93 14.84-66.22-36-44.4800001 4.34 66.8100001 4.37 43.89.15.93-10.4 4.7c-.581893.243089-.9713573.800023-1 1.43l-.11 2.88z" fill="#e4b99e"/><path d="m32.75 96.7813069s6 29.3300001 28.13 70.6400001l8.09 41.34 15.26 1.16 9-104.16v-8.3800001z" fill="#e4b99e"/><path d="m93.38 99.7313069-.35 69.6600001-57.89-3.77-2.57-70.1800001z" fill="#fd4a7a"/><g transform="translate(.31 17.601307)"><path d="m6 199.51h.9l-2.26-113.56c-.03679571-1.692125.62089697-3.3255156 1.82-4.52 1.80985152-1.8200169 4.5330515-2.3804859 6.9145282-1.4230974 2.3814766.9573886 3.9589814 3.2468038 4.0054718 5.8130974v6.27h.89v-6.29c-.0499941-2.9274578-1.8488966-5.5401038-4.5658617-6.6312544-2.716965-1.0911507-5.82323437-.4484532-7.8841383 1.6312544-1.37275351 1.360481-2.12192848 3.2279896-2.07 5.16z" fill="#1e1818"/><path d="m83.77 191.16.15 8.94h-25.74v-2.22c.0004736-.839683.4664439-1.609882 1.21-2l9-4.75z" fill="#313233"/><path d="m53.39 199.5v-9l.31-.93h-12.43l.15.93-10.42 4.7c-.581893.243089-.9713573.800023-1 1.43l-.11 2.88z" fill="#15203d"/><path d="m.88 79.78c-.06-2.6 1.92-7.32 2.49-8.45.37235368-.834996.91770475-1.5814453 1.6-2.19.94980682-.65194 2.03870815-1.0731188 3.18-1.23 7.09-1.56 17-1.3 19.79-9.37 1.08-3.11 1.08-6.47 1.08-9.76 0-4.2733333 0-8.5433333 0-12.81 0-3.92 0-7.91 1.13-11.66 2-6.63 8.55-13.26 15.63-14.28 7.42-1.06 12.63 6.1 15 12.4 7.1463872 19.1987524-1.9842454 40.6324511-20.78 48.78-8.72 3.79-20-.31-28.13 4-1.8450587.9870747-3.86075338 1.6148583-5.94 1.85-1.66.18-1.71 4.9-4.07 4.41-.69-.12-.96-.77-.98-1.69z" fill="#d1a991"/><path d="m32 77.36c.12-1.72.51-3.33.59-4.94.1602113-.8222688.1602113-1.6677312 0-2.49-3.6-17.25-4.17-35.07-4.68-52.71-.1195027-2.5307436.1915854-5.0634065.92-7.49.468751-1.47906503 1.1893331-2.86610101 2.13-4.1l.28-.34c1.9603953-2.22475991 4.5817483-3.76322775 7.48-4.39.42-.1.85-.2 1.3-.28 1.3041689-.23956396 2.6246152-.37996585 3.95-.42 5.71-.23 12.22 1 18.25 2.59 9.34 2.48 18.16 7.75 23.36 15.7 3.58 5.45 5.3 11.85 6.46 18.21 1.3599868 7.4356273 2.0295036 14.9810816 2 22.54 0 3.96-.2033333 7.9133333-.61 11.86-.16 1.6-.86 3.73-.54 5.32.26 1.29 1.66 1.92 1.66 3.44 0 1.79-1.71 2.32-3.48 2.61-2.7485053.2999886-5.5214947.2999886-8.27 0-3.32-.22-6.74.05-10.07 0-8.5-.1-17-.47-25.48-1.19h-.11c-3.79-.32-10.7-1-14.89-1.59-.1683862-.7651715-.2522222-1.5465228-.25-2.33z" fill="#00a1e3"/><path d="m1.41 80.75c.08457529-.8763324.28637647-1.7373508.6-2.56 1.08-3.51 3.29-6.53 7.08-7.27s8.07-1.57 10 2.36-4.67 6.26-7.44 6.26c-3 0-5.8.06-7 3.21-.29724746 1.0729745-.83405389 2.0645278-1.57 2.9-.22.19-1.52-3.35-1.58-3.68-.07262732-.4023945-.10279277-.811304-.09-1.22z" fill="#e4b99e"/><path d="m30.86 5.59c.2667488.5370751.4553242 1.10953611.56 1.7.44 3.08.64 6.21.95 9.3.51 4.94 4.35 56.21 4.86 61.16 1.57-4.89-.17-56.1 1.41-61 1.0933333-3.3333333 2.18-6.6966667 3.26-10.09.65-2 1.94-4.62 1.63-6.51-1.2922461.04047699-2.5794222.18089621-3.85.42-.43.08-.85.18-1.27.28-2.8357639.63502166-5.387698 2.17601071-7.27 4.39-.14.12-.14.24-.28.35z" fill="#f2f2f2"/><path d="m0 34.36c.12-1.72.51-3.33.59-4.94.16021127-.8222688.16021127-1.6677312 0-2.49 2.03562029-.7527336 4.01411757-1.6517467 5.92-2.69 6.32-3.48 11.8-9.37 13.39-16.23 1.33-.06 2.66-.19 4-.38 7.05-1 13.8-3.72 20.54-6 1.3769845-.44421304 2.7795371-.80486941 4.2-1.08 1.61 9.31 1 19.47-4.9 26.77-6.6 8.21-18 10.67-28.57 10.91-3.79-.32-10.7-1-14.89-1.59-.17487955-.7477504-.26875372-1.5121543-.28-2.28z" fill="#313233" opacity=".5" transform="translate(32 43)"/><path d="m14.63 69.9c4-.92 8.15-1.73 12.16-2.78.53 3.93 2.89 6.87 6.14 9-6 0-12.06.26-17.84 2-.09 0-.18 0-.27.09-.4353908-.9810368-1.0004308-1.8992268-1.68-2.73-1.3300283-1.5231629-3.0025099-2.7089798-4.88-3.46 2.0199998-.9858394 4.1620986-1.6987514 6.37-2.12z" fill="#e4b99e"/><path d="m26.79 67.12c4.4467957-1.0698086 8.7431518-2.6889201 12.79-4.82 7.65-4.21 14.07-12 13.86-20.67-.21-8.15-17.36-36.64 1.43-36.47 14.57.14 23.93 19.64 26.42 31.36 2.09 9.86 1.82 21-4.49 28.9-6.78 8.44-18.61 10.79-29.43 10.93-4.79.07-9.63-.19-14.44-.22-3.25-2.13-5.61-5.08-6.14-9.01z" fill="#00a1e3"/></g><path d="m28.31 20.4213069.71.7.94.91 2.36 2.32.16.16 1.61 1.57c.6729668.6630208 1.587774 1.0220373 2.5320613.9937087.9442872-.0283286 1.8359276-.4415386 2.4679387-1.1437087l1.7-1.87c.6505571-.7110794.9750495-1.6612764.8953267-2.6217465-.0797228-.96047-.5564354-1.8441639-1.3153267-2.4382535l-6.82-6.46-.42.37z" fill="#e4b99e"/><path d="m.75 4.52.94.91 2.36 2.32c.99748263-2.09066113 1.04847492-4.50915302.14-6.64-.07470191-.15660186-.16163811-.30706835-.26-.45z" fill="#313233" opacity=".5" transform="translate(28.31 16.601307)"/><path d="m35.22 15.6013069-2-.46c.7005758-.0984068 1.412814.065408 2 .46z" fill="#f2f2f2"/><path d="m22.44 5.74130692c1-1 2.56-1.38 3.37-2.55.34-.48.51-1.06.82-1.57.9517678-1.45571135 2.8120898-2.01676086 4.41-1.33 1.06.5 1.81 1.51 2.81 2.14 1.45.91 3.3 1 4.82 1.76 2.2861366 1.38359383 3.240992 4.21435979 2.26 6.69999998-.71 1.72-1.7 2.13-.57 3.82.3691592.5700582.3922581 1.2976746.06 1.89-1.19 2.07-3.37 1.08-4.59-.23-.7609481-.8521227-1.7729686-1.4404253-2.89-1.68.0399157.1564907.1230896.2985794.24.41-1.1765178.1956555-2.3673273.2926596-3.56.29-2.0871563-.3947549-4.05091-1.2789581-5.73-2.58-2.52-1.81-4.01-4.52999998-1.45-7.06999998z" fill="#f2f2f2"/><path d="m22.47 15.2413069c-.0068994-.7509671.056713-1.5009237.19-2.24.2660925-1.251503.863592-2.4085106 1.73-3.34999998 2.3240625 2.26736828 5.4995708 3.44455898 8.74 3.23999998h.16c.13 1.88-.72 4.58-1 6-.118961 1.1978501-.6827355 2.3075581-1.58 3.11-.633238.3989348-1.372084.5975868-2.12.57-2.1802647.0666128-4.224928-1.0552717-5.34-2.93-.6316662-1.3759333-.9002072-2.8907801-.78-4.4z" fill="#e4b99e"/><path d="m33.22 15.1513069c.4561429.5294473 1.1211629.8327256 1.82.83h.11c-.0053878-.0263945-.0053878-.0536054 0-.08-.21-.44-.43-1-.91-1-.1512648.0082225-.3000403.0420351-.44.1-.2066667.0533334-.4.1033334-.58.15z" fill="#313233" opacity=".5"/><path d="m23.89 14.8013069c0-2.32.87-4.13 2-4.13s2 1.81 2 4.13-.88 4.14-2 4.14-2-1.82-2-4.14zm.55 0c0 2.12.75 3.59 1.43 3.59s1.44-1.47 1.44-3.59-.76-3.58-1.44-3.58-1.43 1.47-1.43 3.58z" fill="#fd4a7a"/><path d="m19.41 14.7113069c0-2.32.87-4.14 2-4.14s2 1.82 2 4.14-.87 4.13-2 4.13-2-1.81-2-4.13zm.55 0c0 2.11.75 3.58 1.43 3.58s1.44-1.47 1.44-3.58-.76-3.58-1.44-3.58-1.43 1.47-1.43 3.58z" fill="#fd4a7a"/><path d="m24.86 19.6713069c-.1825859.2251377-.4538794.35997-.7435906.3695631s-.56933-.1069971-.7664094-.3195631z" fill="#313233"/><path d="m23.1 14.7113069-.54 3.5 1.76.27z" fill="#e4b99e"/><path d="m24.3 18.6213069.05-.27-1.64-.25.53-3.37-.27-.04-.57 3.63z" fill="#313233"/><path d="m31.3099791 12.8913069c-.0040275.9756538.5805764 1.8574917 1.4808037 2.2336668.9002272.376175 1.9384471.1724613 2.6297772-.5160002.6913302-.6884616.8993591-1.7258255.5269304-2.6276091s-1.2518282-1.4900575-2.2274904-1.4900575c-1.3271108 0-2.4044933 1.0729007-2.4100209 2.4z" fill="#e4b99e"/><path d="m0 218.431307h102.25v1h-102.25z" fill="#f2f2f2"/></g></g></svg>